<svg width="400" height="400" viewBox="0 0 400 400" fill="none" xmlns="http://www.w3.org/2000/svg">
  <rect width="400" height="400" fill="#f3f4f6"/>
  <path d="M120 160C120 142.327 134.327 128 152 128H248C265.673 128 280 142.327 280 160V240C280 257.673 265.673 272 248 272H152C134.327 272 120 257.673 120 240V160Z" fill="#d1d5db"/>
  <path d="M140 180L180 220L220 180L260 220V240C260 251.046 251.046 260 240 260H160C148.954 260 140 251.046 140 240V180Z" fill="#9ca3af"/>
  <circle cx="180" cy="200" r="8" fill="#6b7280"/>
  <path d="M160 280H240" stroke="#9ca3af" stroke-width="2"/>
</svg>
